<?xml version="1.0" encoding="UTF-8" standalone="no"?>
<!-- Created with Inkscape (http://www.inkscape.org/) -->

<svg
   xmlns:dc="http://purl.org/dc/elements/1.1/"
   xmlns:cc="http://creativecommons.org/ns#"
   xmlns:rdf="http://www.w3.org/1999/02/22-rdf-syntax-ns#"
   xmlns:svg="http://www.w3.org/2000/svg"
   xmlns="http://www.w3.org/2000/svg"
   xmlns:sodipodi="http://sodipodi.sourceforge.net/DTD/sodipodi-0.dtd"
   xmlns:inkscape="http://www.inkscape.org/namespaces/inkscape"
   width="744.09448819"
   height="1052.3622047"
   id="svg2"
   version="1.1"
   inkscape:version="0.48.2 r9819"
   sodipodi:docname="SSS.svg">
  <defs
     id="defs4" />
  <sodipodi:namedview
     id="base"
     pagecolor="#ffffff"
     bordercolor="#666666"
     borderopacity="1.0"
     inkscape:pageopacity="0.0"
     inkscape:pageshadow="2"
     inkscape:zoom="0.7071875"
     inkscape:cx="473.89618"
     inkscape:cy="691.01472"
     inkscape:document-units="px"
     inkscape:current-layer="layer1"
     showgrid="true"
     inkscape:snap-global="true"
     inkscape:window-width="1280"
     inkscape:window-height="752"
     inkscape:window-x="-5"
     inkscape:window-y="0"
     inkscape:window-maximized="0"
     showguides="true"
     inkscape:guide-bbox="true"
     inkscape:snap-to-guides="false"
     inkscape:snap-grids="true"
     inkscape:snap-page="false">
    <inkscape:grid
       type="xygrid"
       id="grid3967"
       empspacing="6"
       visible="true"
       enabled="true"
       snapvisiblegridlinesonly="true"
       dotted="false"
       spacingx="1px"
       spacingy="1px" />
  </sodipodi:namedview>
  <metadata
     id="metadata7">
    <rdf:RDF>
      <cc:Work
         rdf:about="">
        <dc:format>image/svg+xml</dc:format>
        <dc:type
           rdf:resource="http://purl.org/dc/dcmitype/StillImage" />
        <dc:title></dc:title>
      </cc:Work>
    </rdf:RDF>
  </metadata>
  <g
     inkscape:label="Layer 1"
     inkscape:groupmode="layer"
     id="layer1">
    <path
       style="fill:#280b0b;stroke:none"
       d="m 336,326.36218 -47.82324,0.35351 0,-5.95669 5.82324,-6.39682 42,0 0,6 z"
       id="path3128-8-87"
       inkscape:connector-curvature="0"
       sodipodi:nodetypes="ccccccc" />
    <path
       style="fill:#280b0b;stroke:none"
       d="m 324,326.36218 -36,48 12,0 36,-48 z"
       id="path3005-3"
       inkscape:connector-curvature="0"
       sodipodi:nodetypes="ccccc" />
    <path
       style="fill:#280b0b;stroke:none"
       d="m 288,374.36218 48,0 0,6 -6,6 -36,0 -6,0 z"
       id="path3128-8-87-5"
       inkscape:connector-curvature="0"
       sodipodi:nodetypes="ccccccc" />
    <rect
       style="opacity:0.97000002;fill:#ffffff;stroke:#ffffff;stroke-width:0.5;stroke-linecap:butt;stroke-miterlimit:4;stroke-opacity:0.41777781;stroke-dasharray:12, 0.5;stroke-dashoffset:0"
       id="rect15160"
       width="7.2470174"
       height="14.140521"
       x="272.48346"
       y="308.03253"
       rx="0.09142857"
       ry="0.073333338" />
    <rect
       style="opacity:0.97000002;fill:#ffffff;stroke:#ffffff;stroke-width:0.5;stroke-linecap:butt;stroke-miterlimit:4;stroke-opacity:0.41777781;stroke-dasharray:12, 0.5;stroke-dashoffset:0"
       id="rect15162"
       width="4.5956693"
       height="34.11401"
       x="281.14447"
       y="302.72983"
       rx="0.09142857"
       ry="0.073333338" />
    <path
       style="fill:#280b0b;stroke:none"
       d="m 384,356.36218 12,0 0,18 -12,0 z"
       id="path2985-5-9-1"
       inkscape:connector-curvature="0" />
    <rect
       style="opacity:0.97000002;fill:#280b0b;stroke:none"
       id="rect15190"
       width="36"
       height="12"
       x="360"
       y="338.36218"
       rx="0.09142857"
       ry="0.073333338" />
    <path
       style="fill:#280b0b;stroke:none"
       d="m 360,350.36218 12,0 0,30 -12,0 z"
       id="path2985-5-9-1-5"
       inkscape:connector-curvature="0" />
    <path
       style="fill:#280b0b;stroke:none"
       d="m 402,320.36218 12,0 0,66 -12,0 z"
       id="path2985-5-9-1-54"
       inkscape:connector-curvature="0" />
    <rect
       style="opacity:0.97000002;fill:#280b0b;stroke:none"
       id="rect15190-36"
       width="72"
       height="12"
       x="342"
       y="314.36218"
       rx="0.18285714"
       ry="0.073333338" />
    <path
       style="fill:#280b0b;stroke:none"
       d="m 342,320.36218 12,0 0,48 -6.55747,0 -5.44253,-4.8 z"
       id="path2985-5-9-1-54-5"
       inkscape:connector-curvature="0"
       sodipodi:nodetypes="cccccc" />
    <path
       style="fill:#280b0b;stroke:none"
       d="m 360,380.36218 18,0 0,-6 -18,0 0,12 18,0 0,-12 -18,0 0,0"
       id="path15283"
       inkscape:connector-curvature="0" />
    <path
       style="fill:#280b0b;stroke:none"
       d="m 384,380.36218 18,0 0,-6 -18,0 0,12 18,0 0,-12 -18,0 0,0"
       id="path15283-8"
       inkscape:connector-curvature="0" />
  </g>
</svg>
